<svg xmlns="http://www.w3.org/2000/svg" xmlns:xlink="http://www.w3.org/1999/xlink" width="500" zoomAndPan="magnify" viewBox="0 0 375 374.999991" height="500" preserveAspectRatio="xMidYMid meet" version="1.0"><defs><g/><clipPath id="5a38f350b3"><path d="M 82 73 L 293 73 L 293 302 L 82 302 Z M 82 73 " clip-rule="nonzero"/></clipPath><clipPath id="b727b5abf5"><path d="M 59.109375 79.5625 L 277.847656 46.328125 L 315.703125 295.46875 L 96.960938 328.703125 Z M 59.109375 79.5625 " clip-rule="nonzero"/></clipPath><clipPath id="3d0a80ee42"><path d="M 59.109375 79.5625 L 277.847656 46.328125 L 315.703125 295.46875 L 96.960938 328.703125 Z M 59.109375 79.5625 " clip-rule="nonzero"/></clipPath><clipPath id="70c00dfe9a"><path d="M 82.394531 104.414062 L 119.894531 104.414062 L 119.894531 144.164062 L 82.394531 144.164062 Z M 82.394531 104.414062 " clip-rule="nonzero"/></clipPath></defs><g clip-path="url(#5a38f350b3)"><g clip-path="url(#b727b5abf5)"><g clip-path="url(#3d0a80ee42)"><path fill="#3b60c4" d="M 143.332031 82.140625 C 145.039062 81.425781 146.761719 80.753906 148.5 80.125 C 150.238281 79.492188 151.992188 78.90625 153.757812 78.359375 C 155.523438 77.816406 157.304688 77.3125 159.09375 76.851562 C 160.886719 76.394531 162.6875 75.980469 164.5 75.609375 C 166.3125 75.234375 168.132812 74.910156 169.957031 74.625 C 171.785156 74.34375 173.621094 74.105469 175.457031 73.910156 C 177.296875 73.714844 179.140625 73.566406 180.988281 73.464844 C 182.832031 73.359375 184.679688 73.300781 186.53125 73.285156 C 188.378906 73.269531 190.226562 73.300781 192.074219 73.375 C 193.921875 73.449219 195.769531 73.570312 197.609375 73.734375 C 199.453125 73.898438 201.289062 74.109375 203.121094 74.363281 C 204.953125 74.617188 206.777344 74.917969 208.59375 75.257812 C 210.410156 75.601562 212.21875 75.988281 214.019531 76.417969 C 215.816406 76.847656 217.605469 77.324219 219.378906 77.839844 C 221.15625 78.359375 222.917969 78.917969 224.664062 79.523438 C 226.414062 80.125 228.144531 80.769531 229.863281 81.457031 C 231.578125 82.144531 233.277344 82.871094 234.960938 83.640625 C 236.640625 84.414062 238.304688 85.222656 239.945312 86.074219 C 241.585938 86.921875 243.207031 87.8125 244.808594 88.742188 C 246.40625 89.671875 247.980469 90.640625 249.53125 91.644531 C 251.085938 92.652344 252.613281 93.695312 254.113281 94.773438 C 255.613281 95.855469 257.085938 96.96875 258.535156 98.121094 C 259.980469 99.273438 261.398438 100.460938 262.789062 101.679688 C 264.179688 102.898438 265.539062 104.152344 266.867188 105.441406 C 268.195312 106.726562 269.492188 108.042969 270.753906 109.394531 C 272.019531 110.742188 273.25 112.125 274.449219 113.53125 C 275.644531 114.941406 276.808594 116.378906 277.933594 117.84375 C 279.0625 119.3125 280.152344 120.804688 281.210938 122.324219 C 282.265625 123.839844 283.28125 125.386719 284.261719 126.953125 C 285.242188 128.523438 286.183594 130.113281 287.085938 131.726562 C 287.988281 133.339844 288.851562 134.976562 289.675781 136.632812 C 290.496094 138.289062 291.28125 139.960938 292.023438 141.65625 C 292.296875 142.28125 292.570312 142.921875 292.839844 143.574219 L 291.203125 144.4375 C 290.921875 143.753906 290.632812 143.074219 290.335938 142.394531 C 289.597656 140.714844 288.824219 139.054688 288.007812 137.414062 C 287.191406 135.773438 286.335938 134.152344 285.441406 132.550781 C 284.542969 130.953125 283.609375 129.375 282.636719 127.824219 C 281.664062 126.269531 280.65625 124.742188 279.609375 123.238281 C 278.558594 121.730469 277.476562 120.253906 276.355469 118.804688 C 275.238281 117.351562 274.082031 115.929688 272.894531 114.535156 C 271.703125 113.140625 270.480469 111.777344 269.222656 110.441406 C 267.96875 109.105469 266.679688 107.804688 265.359375 106.53125 C 264.039062 105.261719 262.6875 104.023438 261.308594 102.816406 C 259.925781 101.613281 258.515625 100.441406 257.078125 99.304688 C 255.640625 98.167969 254.175781 97.066406 252.683594 96.003906 C 251.191406 94.9375 249.675781 93.910156 248.132812 92.921875 C 246.589844 91.929688 245.023438 90.976562 243.4375 90.0625 C 241.847656 89.152344 240.238281 88.277344 238.605469 87.441406 C 236.972656 86.605469 235.320312 85.8125 233.652344 85.058594 C 231.980469 84.304688 230.292969 83.589844 228.585938 82.921875 C 226.882812 82.25 225.160156 81.621094 223.425781 81.03125 C 221.6875 80.445312 219.9375 79.902344 218.175781 79.398438 C 216.410156 78.898438 214.636719 78.441406 212.851562 78.027344 C 211.066406 77.613281 209.273438 77.242188 207.46875 76.914062 C 205.664062 76.585938 203.855469 76.304688 202.039062 76.066406 C 200.21875 75.828125 198.398438 75.636719 196.570312 75.488281 C 194.742188 75.339844 192.914062 75.234375 191.082031 75.175781 C 189.25 75.117188 187.417969 75.101562 185.585938 75.132812 C 183.753906 75.164062 181.921875 75.238281 180.09375 75.359375 C 178.265625 75.476562 176.4375 75.644531 174.617188 75.851562 C 172.796875 76.0625 170.984375 76.316406 169.175781 76.613281 C 167.367188 76.914062 165.566406 77.253906 163.773438 77.640625 C 161.984375 78.027344 160.203125 78.457031 158.429688 78.929688 C 156.660156 79.40625 154.902344 79.921875 153.15625 80.480469 C 151.410156 81.042969 149.679688 81.644531 147.964844 82.289062 C 146.25 82.933594 144.550781 83.617188 142.867188 84.347656 C 143.035156 83.617188 143.195312 82.886719 143.332031 82.144531 Z M 83.851562 230.789062 C 84.085938 231.351562 84.320312 231.90625 84.566406 232.460938 C 85.300781 234.144531 86.078125 235.808594 86.898438 237.453125 C 87.714844 239.101562 88.574219 240.722656 89.472656 242.328125 C 90.371094 243.929688 91.308594 245.511719 92.285156 247.066406 C 93.261719 248.625 94.273438 250.15625 95.324219 251.664062 C 96.375 253.171875 97.460938 254.652344 98.585938 256.105469 C 99.710938 257.558594 100.867188 258.984375 102.0625 260.382812 C 103.253906 261.777344 104.484375 263.144531 105.742188 264.484375 C 107.003906 265.820312 108.296875 267.125 109.621094 268.398438 C 110.945312 269.671875 112.300781 270.910156 113.6875 272.117188 C 115.074219 273.324219 116.488281 274.496094 117.929688 275.632812 C 119.375 276.773438 120.84375 277.875 122.339844 278.9375 C 123.839844 280.003906 125.359375 281.03125 126.910156 282.023438 C 128.457031 283.011719 130.027344 283.964844 131.621094 284.878906 C 133.214844 285.792969 134.832031 286.664062 136.46875 287.5 C 138.105469 288.335938 139.761719 289.128906 141.441406 289.878906 C 143.117188 290.632812 144.808594 291.34375 146.519531 292.015625 C 148.230469 292.683594 149.957031 293.3125 151.699219 293.894531 C 153.441406 294.480469 155.199219 295.023438 156.964844 295.523438 C 158.734375 296.019531 160.515625 296.476562 162.304688 296.886719 C 164.097656 297.296875 165.894531 297.664062 167.703125 297.988281 C 169.511719 298.3125 171.328125 298.589844 173.152344 298.824219 C 174.972656 299.058594 176.800781 299.246094 178.632812 299.390625 C 180.464844 299.535156 182.300781 299.636719 184.136719 299.691406 C 185.972656 299.746094 187.808594 299.753906 189.648438 299.71875 C 191.484375 299.683594 193.320312 299.601562 195.152344 299.476562 C 196.984375 299.347656 198.816406 299.179688 200.640625 298.960938 C 202.464844 298.746094 204.28125 298.488281 206.09375 298.179688 C 207.90625 297.875 209.710938 297.527344 211.503906 297.132812 C 213.300781 296.742188 215.085938 296.304688 216.859375 295.820312 C 218.632812 295.339844 220.390625 294.816406 222.140625 294.25 C 223.886719 293.683594 225.621094 293.070312 227.339844 292.417969 C 229.054688 291.765625 230.757812 291.074219 232.441406 290.335938 C 232.261719 291.070312 232.09375 291.804688 231.945312 292.546875 C 230.238281 293.269531 228.515625 293.949219 226.773438 294.585938 C 225.035156 295.226562 223.28125 295.820312 221.511719 296.375 C 219.742188 296.925781 217.960938 297.433594 216.164062 297.902344 C 214.371094 298.367188 212.566406 298.789062 210.753906 299.167969 C 208.9375 299.546875 207.117188 299.878906 205.285156 300.167969 C 203.453125 300.457031 201.617188 300.703125 199.773438 300.902344 C 197.929688 301.101562 196.085938 301.257812 194.234375 301.367188 C 192.382812 301.476562 190.53125 301.542969 188.679688 301.5625 C 186.824219 301.582031 184.972656 301.554688 183.121094 301.484375 C 181.269531 301.414062 179.417969 301.300781 177.574219 301.136719 C 175.726562 300.976562 173.882812 300.773438 172.046875 300.523438 C 170.210938 300.273438 168.382812 299.976562 166.558594 299.636719 C 164.738281 299.296875 162.925781 298.914062 161.121094 298.488281 C 159.316406 298.058594 157.523438 297.589844 155.746094 297.074219 C 153.964844 296.558594 152.195312 296 150.441406 295.398438 C 148.691406 294.796875 146.953125 294.15625 145.230469 293.46875 C 143.507812 292.785156 141.804688 292.058594 140.117188 291.289062 C 138.429688 290.519531 136.761719 289.710938 135.117188 288.859375 C 133.46875 288.011719 131.84375 287.121094 130.238281 286.191406 C 128.636719 285.265625 127.054688 284.296875 125.496094 283.289062 C 123.941406 282.285156 122.410156 281.242188 120.902344 280.160156 C 119.398438 279.082031 117.917969 277.964844 116.464844 276.8125 C 115.015625 275.660156 113.59375 274.472656 112.199219 273.25 C 110.804688 272.027344 109.441406 270.773438 108.109375 269.484375 C 106.777344 268.195312 105.476562 266.875 104.207031 265.523438 C 102.9375 264.171875 101.703125 262.792969 100.503906 261.378906 C 99.300781 259.96875 98.136719 258.527344 97.003906 257.058594 C 95.875 255.589844 94.777344 254.097656 93.71875 252.574219 C 92.664062 251.050781 91.640625 249.503906 90.660156 247.933594 C 89.675781 246.363281 88.730469 244.769531 87.828125 243.148438 C 86.921875 241.53125 86.054688 239.894531 85.230469 238.234375 C 84.40625 236.574219 83.621094 234.894531 82.875 233.199219 C 82.652344 232.6875 82.4375 232.171875 82.21875 231.660156 Z M 83.851562 230.789062 " fill-opacity="1" fill-rule="evenodd"/></g></g></g><g clip-path="url(#70c00dfe9a)"><path fill="#f2a60c" d="M 101.757812 104.414062 C 102.003906 104.585938 102.253906 104.757812 102.542969 104.851562 C 102.832031 104.953125 103.140625 104.984375 103.445312 105.011719 C 103.683594 105.027344 103.917969 105.054688 104.15625 105.0625 C 104.882812 105.085938 105.617188 105.175781 106.296875 105.445312 C 106.472656 105.523438 106.671875 105.574219 106.8125 105.714844 L 106.75 105.734375 C 106.90625 105.835938 107.089844 105.882812 107.25 105.972656 C 107.425781 106.113281 107.597656 106.273438 107.695312 106.480469 C 107.757812 106.609375 107.738281 106.777344 107.628906 106.875 C 107.535156 106.957031 107.546875 107.101562 107.449219 107.179688 C 107.332031 107.269531 107.171875 107.257812 107.035156 107.242188 C 107.371094 107.605469 107.617188 108.039062 107.785156 108.503906 C 107.8125 108.625 107.777344 108.75 107.789062 108.871094 C 107.808594 109.472656 108.035156 110.042969 108.332031 110.558594 C 108.535156 110.90625 108.679688 111.304688 109 111.570312 C 109.140625 111.683594 109.296875 111.835938 109.273438 112.035156 C 109.273438 112.140625 109.199219 112.226562 109.15625 112.316406 C 109.132812 112.707031 109.117188 113.109375 108.949219 113.46875 C 108.824219 113.734375 108.597656 113.9375 108.347656 114.078125 C 108.242188 114.136719 108.121094 114.148438 108.007812 114.152344 C 107.9375 114.273438 107.804688 114.378906 107.660156 114.34375 C 107.441406 114.300781 107.289062 114.125 107.136719 113.976562 C 106.953125 113.925781 106.746094 113.894531 106.605469 113.75 C 106.773438 114.019531 106.917969 114.296875 107.09375 114.558594 C 107.589844 115.332031 108.066406 116.144531 108.238281 117.054688 C 108.363281 117.113281 108.488281 117.179688 108.585938 117.28125 C 108.722656 117.421875 108.789062 117.613281 108.871094 117.785156 C 108.980469 117.628906 109.089844 117.46875 109.222656 117.328125 C 109.804688 116.6875 110.613281 116.316406 111.210938 115.695312 C 111.355469 115.546875 111.476562 115.375 111.597656 115.203125 C 111.78125 114.992188 112.019531 114.808594 112.300781 114.75 C 112.582031 114.6875 112.871094 114.796875 113.097656 114.960938 C 113.382812 115.171875 113.648438 115.453125 113.714844 115.816406 C 113.71875 115.90625 113.804688 115.957031 113.859375 116.023438 C 113.929688 116.085938 113.980469 116.183594 114.078125 116.207031 C 115.035156 116.53125 115.992188 116.855469 116.925781 117.25 C 117.261719 117.363281 117.621094 117.398438 117.953125 117.535156 C 118.089844 117.59375 118.222656 117.679688 118.3125 117.800781 C 118.433594 117.949219 118.492188 118.132812 118.523438 118.320312 C 118.53125 118.359375 118.535156 118.402344 118.5625 118.433594 C 118.660156 118.554688 118.757812 118.675781 118.855469 118.796875 C 118.894531 118.859375 118.976562 118.863281 119.039062 118.898438 C 119.257812 119.007812 119.425781 119.199219 119.5625 119.394531 C 119.710938 119.605469 119.808594 119.84375 119.914062 120.074219 C 119.984375 120.261719 120.070312 120.453125 120.050781 120.65625 C 120.039062 120.785156 119.921875 120.875 119.800781 120.894531 C 119.507812 120.953125 119.203125 120.890625 118.917969 120.8125 C 118.722656 120.757812 118.53125 120.660156 118.425781 120.484375 C 118.285156 120.257812 118.25 119.988281 118.210938 119.730469 C 118.117188 119.699219 118.027344 119.648438 117.984375 119.5625 C 117.871094 119.351562 117.886719 119.109375 117.882812 118.882812 C 117.703125 118.90625 117.515625 118.953125 117.339844 118.890625 C 117.160156 118.820312 117.039062 118.660156 116.917969 118.515625 C 116.78125 118.347656 116.578125 118.25 116.386719 118.164062 C 115.914062 117.964844 115.414062 117.855469 114.917969 117.730469 C 115.460938 118.585938 115.988281 119.457031 116.359375 120.40625 C 116.40625 120.503906 116.429688 120.613281 116.488281 120.710938 C 116.648438 120.925781 116.808594 121.171875 116.8125 121.453125 C 116.816406 121.644531 116.699219 121.816406 116.554688 121.929688 C 116.492188 122.214844 116.445312 122.507812 116.316406 122.769531 C 116.261719 122.882812 116.160156 122.988281 116.027344 122.980469 C 115.863281 122.96875 115.71875 122.875 115.582031 122.785156 C 115.476562 122.707031 115.371094 122.632812 115.277344 122.542969 C 115.117188 122.363281 115.027344 122.121094 115.019531 121.878906 C 115.011719 121.683594 115.09375 121.476562 115.257812 121.367188 C 115.230469 121.253906 115.167969 121.136719 115.210938 121.019531 C 115.238281 120.9375 115.292969 120.863281 115.335938 120.789062 C 115.207031 120.558594 115.089844 120.320312 115.042969 120.058594 C 115.011719 119.925781 115 119.785156 114.980469 119.648438 C 114.609375 118.867188 114.007812 118.222656 113.34375 117.683594 C 112.464844 118.351562 111.71875 119.175781 110.945312 119.957031 C 110.632812 120.269531 110.300781 120.566406 110 120.890625 C 109.847656 121.113281 109.699219 121.351562 109.46875 121.503906 C 109.121094 121.738281 108.679688 121.707031 108.28125 121.675781 C 107.84375 122.796875 107.269531 123.871094 106.53125 124.820312 C 105.863281 125.675781 105.058594 126.429688 104.117188 126.96875 C 103.042969 127.59375 101.800781 127.917969 100.558594 127.90625 C 100.511719 128.25 100.484375 128.597656 100.433594 128.941406 C 100.386719 129.25 100.300781 129.5625 100.101562 129.808594 C 99.851562 130.125 99.492188 130.324219 99.136719 130.5 C 99.109375 130.828125 99.101562 131.171875 98.949219 131.46875 C 98.785156 131.753906 98.519531 131.949219 98.277344 132.160156 C 98.273438 132.414062 98.289062 132.679688 98.207031 132.925781 C 98.117188 133.179688 97.914062 133.367188 97.714844 133.535156 C 97.671875 133.757812 97.609375 133.980469 97.496094 134.179688 C 97.339844 134.464844 97.066406 134.660156 96.789062 134.820312 C 96.65625 134.902344 96.503906 134.957031 96.390625 135.066406 C 95.976562 135.414062 95.613281 135.820312 95.304688 136.261719 C 95.285156 136.296875 95.226562 136.335938 95.265625 136.382812 C 95.785156 137.328125 96.277344 138.289062 96.878906 139.183594 C 97.25 139.730469 97.660156 140.253906 98.148438 140.699219 C 98.382812 140.828125 98.65625 140.890625 98.855469 141.078125 C 99.023438 141.25 99.046875 141.5 99.058594 141.726562 C 99.058594 141.765625 99.09375 141.785156 99.121094 141.800781 C 99.382812 141.980469 99.613281 142.203125 99.820312 142.445312 C 99.945312 142.597656 100.078125 142.757812 100.144531 142.949219 C 100.027344 143.054688 99.859375 143.066406 99.710938 143.09375 C 99.390625 143.125 99.0625 143.128906 98.75 143.046875 C 98.652344 143.019531 98.546875 142.980469 98.480469 142.902344 C 98.351562 142.703125 98.257812 142.480469 98.222656 142.242188 C 98.003906 142.25 97.773438 142.207031 97.605469 142.066406 C 97.378906 141.882812 97.273438 141.597656 97.207031 141.324219 C 97.191406 141.257812 97.191406 141.1875 97.148438 141.132812 C 96.324219 140.015625 95.515625 138.894531 94.679688 137.789062 C 94.636719 138.09375 94.613281 138.402344 94.652344 138.707031 C 94.691406 139.074219 94.800781 139.425781 94.914062 139.769531 C 95.03125 140.128906 95.160156 140.480469 95.28125 140.832031 C 95.421875 141.242188 95.601562 141.652344 95.914062 141.964844 C 96.101562 142.167969 96.363281 142.300781 96.519531 142.535156 C 96.613281 142.675781 96.625 142.855469 96.636719 143.019531 C 96.800781 143.144531 96.953125 143.289062 97.058594 143.46875 C 97.1875 143.671875 97.246094 143.914062 97.226562 144.15625 C 96.984375 144.242188 96.722656 144.246094 96.46875 144.246094 C 96.238281 144.242188 96.007812 144.226562 95.785156 144.167969 C 95.714844 144.144531 95.628906 144.117188 95.613281 144.035156 C 95.546875 143.800781 95.511719 143.558594 95.503906 143.316406 C 95.339844 143.273438 95.179688 143.191406 95.066406 143.0625 C 94.917969 142.898438 94.851562 142.679688 94.832031 142.464844 C 94.824219 142.390625 94.832031 142.3125 94.808594 142.242188 C 94.515625 141.375 94.179688 140.519531 93.914062 139.644531 C 93.886719 139.550781 93.832031 139.472656 93.785156 139.394531 C 93.472656 138.847656 93.175781 138.296875 92.9375 137.714844 C 92.886719 137.59375 92.855469 137.464844 92.777344 137.355469 C 92.640625 137.121094 92.476562 136.855469 92.550781 136.570312 C 92.625 136.324219 92.800781 136.128906 92.957031 135.933594 C 92.800781 135.714844 92.65625 135.449219 92.71875 135.171875 C 92.785156 134.867188 93.027344 134.652344 93.222656 134.429688 C 93.667969 133.59375 94.09375 132.746094 94.617188 131.953125 C 94.632812 131.925781 94.652344 131.894531 94.632812 131.863281 C 94.542969 131.6875 94.402344 131.542969 94.277344 131.394531 C 94.082031 131.160156 93.867188 130.917969 93.804688 130.609375 C 93.542969 130.171875 93.269531 129.742188 93.058594 129.273438 C 93 129.144531 92.957031 129.007812 92.878906 128.886719 C 92.703125 128.605469 92.644531 128.269531 92.597656 127.945312 C 92.484375 128.234375 92.386719 128.539062 92.402344 128.851562 C 92.421875 129.144531 92.542969 129.421875 92.683594 129.675781 C 92.480469 129.507812 92.304688 129.296875 92.214844 129.042969 C 92.117188 128.777344 92.109375 128.492188 92.09375 128.210938 C 92.058594 128.277344 92.015625 128.34375 92.035156 128.417969 C 92.132812 129.253906 91.953125 130.128906 91.496094 130.84375 C 91.769531 131.078125 91.96875 131.40625 92.046875 131.761719 C 92.128906 132.148438 92.09375 132.554688 91.992188 132.933594 C 92.273438 133.425781 92.503906 133.972656 92.5 134.546875 C 92.507812 135.109375 92.277344 135.648438 91.949219 136.09375 C 91.882812 136.1875 91.796875 136.269531 91.746094 136.378906 C 91.71875 136.414062 91.714844 136.339844 91.730469 136.328125 C 91.8125 136.25 91.859375 136.144531 91.917969 136.050781 C 92.078125 135.773438 92.207031 135.46875 92.21875 135.144531 C 92.234375 134.824219 92.152344 134.511719 92.078125 134.203125 C 92.027344 134.808594 91.917969 135.433594 91.585938 135.953125 C 91.300781 136.414062 90.84375 136.75 90.335938 136.921875 C 89.691406 137.144531 89 137.183594 88.324219 137.140625 C 88.894531 137.125 89.484375 137.058594 89.992188 136.78125 C 90.40625 136.558594 90.714844 136.183594 90.910156 135.761719 C 91.050781 135.472656 91.160156 135.167969 91.230469 134.855469 C 91.058594 135.3125 90.820312 135.75 90.484375 136.109375 C 90.160156 136.457031 89.730469 136.707031 89.265625 136.808594 C 88.636719 136.957031 87.980469 136.871094 87.359375 136.726562 C 86.976562 136.632812 86.601562 136.511719 86.234375 136.378906 C 85.960938 136.277344 85.6875 136.175781 85.398438 136.125 C 85.097656 136.074219 84.78125 136.082031 84.484375 136.152344 C 84.382812 136.175781 84.285156 136.210938 84.179688 136.226562 C 84.402344 136.089844 84.644531 135.972656 84.90625 135.953125 C 85.132812 135.925781 85.359375 135.96875 85.585938 135.992188 C 85.226562 135.878906 84.867188 135.746094 84.484375 135.753906 C 84.300781 135.753906 84.101562 135.804688 83.972656 135.941406 C 83.871094 136.042969 83.824219 136.183594 83.792969 136.320312 C 83.75 136.101562 83.738281 135.855469 83.855469 135.65625 C 83.964844 135.46875 84.175781 135.363281 84.382812 135.304688 C 84.667969 135.230469 84.964844 135.226562 85.257812 135.210938 C 84.839844 135.152344 84.410156 135.085938 83.988281 135.15625 C 83.769531 135.191406 83.535156 135.269531 83.398438 135.457031 C 83.289062 135.601562 83.273438 135.792969 83.300781 135.96875 C 83.316406 136.097656 83.367188 136.21875 83.398438 136.34375 C 83.269531 136.136719 83.136719 135.921875 83.09375 135.675781 C 83.046875 135.460938 83.089844 135.226562 83.226562 135.054688 C 83.394531 134.828125 83.648438 134.6875 83.902344 134.578125 C 83.683594 134.628906 83.46875 134.707031 83.269531 134.8125 C 83.074219 134.910156 82.894531 135.074219 82.839844 135.292969 C 82.773438 135.5625 82.859375 135.839844 82.957031 136.089844 C 82.84375 135.90625 82.757812 135.707031 82.703125 135.5 C 82.640625 135.246094 82.644531 134.957031 82.785156 134.730469 C 82.957031 134.445312 83.265625 134.28125 83.566406 134.171875 C 84.128906 133.976562 84.730469 133.929688 85.320312 133.890625 C 85.066406 133.777344 84.804688 133.683594 84.539062 133.597656 C 84.167969 133.480469 83.75 133.398438 83.371094 133.542969 C 82.957031 133.695312 82.664062 134.042969 82.40625 134.386719 C 82.628906 133.964844 82.90625 133.542969 83.335938 133.316406 C 83.789062 133.082031 84.3125 133.105469 84.808594 133.097656 C 84.433594 133.023438 84.046875 132.953125 83.664062 133.003906 C 83.300781 133.054688 82.976562 133.246094 82.683594 133.457031 C 83.03125 133.046875 83.539062 132.761719 84.082031 132.726562 C 84.757812 132.679688 85.410156 132.910156 86.050781 133.097656 C 86.191406 132.953125 86.320312 132.792969 86.410156 132.609375 C 86.523438 132.375 86.585938 132.117188 86.640625 131.863281 C 86.542969 132.007812 86.457031 132.167969 86.328125 132.289062 C 86.195312 132.402344 86.035156 132.476562 85.878906 132.539062 C 86.039062 132.390625 86.210938 132.25 86.332031 132.066406 C 86.445312 131.890625 86.46875 131.679688 86.492188 131.476562 C 86.085938 131.566406 85.664062 131.628906 85.304688 131.839844 C 84.96875 132.035156 84.746094 132.367188 84.574219 132.703125 C 84.652344 132.394531 84.75 132.078125 84.957031 131.828125 C 85.195312 131.558594 85.546875 131.433594 85.863281 131.285156 C 85.476562 131.355469 85.070312 131.441406 84.75 131.683594 C 84.535156 131.84375 84.386719 132.070312 84.269531 132.304688 C 84.339844 131.945312 84.492188 131.582031 84.78125 131.339844 C 85.070312 131.089844 85.449219 130.984375 85.820312 130.917969 C 86.050781 130.878906 86.285156 130.847656 86.519531 130.824219 C 86.488281 130.667969 86.449219 130.507812 86.375 130.367188 C 86.292969 130.207031 86.183594 130.0625 86.085938 129.910156 C 85.71875 129.941406 85.355469 130.03125 85.027344 130.195312 C 84.863281 130.285156 84.683594 130.417969 84.652344 130.617188 C 84.632812 130.78125 84.738281 130.925781 84.839844 131.042969 C 84.660156 130.9375 84.472656 130.800781 84.40625 130.589844 C 84.347656 130.410156 84.429688 130.21875 84.550781 130.089844 C 84.769531 129.839844 85.078125 129.6875 85.386719 129.582031 C 85.050781 129.601562 84.699219 129.570312 84.371094 129.671875 C 84.050781 129.765625 83.882812 130.101562 83.847656 130.414062 C 83.816406 130.164062 83.847656 129.898438 83.964844 129.675781 C 84.070312 129.480469 84.273438 129.363281 84.484375 129.3125 C 84.855469 129.222656 85.242188 129.234375 85.621094 129.191406 C 85.375 128.527344 85.148438 127.851562 85.058594 127.144531 C 84.683594 127.066406 84.300781 126.980469 83.96875 126.777344 C 83.621094 126.566406 83.363281 126.238281 83.132812 125.90625 C 83.296875 126.066406 83.445312 126.246094 83.636719 126.371094 C 83.847656 126.511719 84.097656 126.585938 84.347656 126.628906 C 84.011719 126.453125 83.675781 126.242188 83.460938 125.921875 C 83.285156 125.652344 83.265625 125.316406 83.308594 125.007812 C 83.332031 124.773438 83.402344 124.550781 83.449219 124.324219 C 83.445312 124.664062 83.367188 125.015625 83.5 125.34375 C 83.632812 125.691406 83.980469 125.898438 84.3125 126.035156 C 84.183594 125.949219 84.066406 125.84375 83.984375 125.714844 C 83.851562 125.5 83.820312 125.246094 83.757812 125.007812 C 83.886719 125.273438 84.011719 125.5625 84.257812 125.742188 C 84.53125 125.9375 84.878906 125.945312 85.203125 125.96875 C 85.339844 125.480469 85.507812 124.996094 85.761719 124.554688 C 85.960938 124.207031 86.222656 123.882812 86.574219 123.683594 C 86.886719 123.507812 87.261719 123.464844 87.613281 123.523438 C 88.164062 123.617188 88.664062 123.882812 89.125 124.179688 C 89.269531 124.28125 89.4375 124.363281 89.546875 124.507812 C 89.816406 124.785156 90.140625 125.003906 90.472656 125.203125 C 90.90625 125.457031 91.363281 125.671875 91.84375 125.820312 C 92.144531 125.910156 92.464844 125.972656 92.78125 125.933594 C 92.875 125.488281 93.023438 125.050781 93.289062 124.675781 C 93.613281 124.214844 94.078125 123.882812 94.539062 123.566406 C 94.6875 123.460938 94.855469 123.371094 94.988281 123.242188 C 95.292969 122.988281 95.683594 122.859375 96.070312 122.773438 C 96.386719 122.707031 96.710938 122.675781 97.035156 122.628906 C 98.277344 121.8125 99.398438 120.789062 100.265625 119.574219 C 100.039062 119.625 99.808594 119.695312 99.574219 119.660156 C 99.355469 119.636719 99.15625 119.53125 98.964844 119.433594 C 99.167969 119.464844 99.367188 119.539062 99.578125 119.511719 C 99.859375 119.484375 100.070312 119.277344 100.261719 119.089844 C 100.019531 119.167969 99.773438 119.253906 99.515625 119.246094 C 99.273438 119.253906 99.039062 119.191406 98.800781 119.15625 C 99.035156 119.128906 99.277344 119.160156 99.511719 119.101562 C 99.84375 119.035156 100.109375 118.8125 100.339844 118.578125 C 100.109375 118.675781 99.878906 118.777344 99.628906 118.828125 C 99.167969 118.9375 98.691406 118.910156 98.21875 118.90625 C 98.601562 118.871094 98.988281 118.816406 99.335938 118.652344 C 99.648438 118.515625 99.949219 118.285156 100.054688 117.949219 C 100.140625 117.707031 100.085938 117.441406 99.988281 117.207031 C 100.023438 117.460938 100.03125 117.734375 99.890625 117.960938 C 99.703125 118.277344 99.335938 118.433594 98.988281 118.5 C 98.570312 118.582031 98.132812 118.539062 97.71875 118.660156 C 97.589844 118.695312 97.457031 118.777344 97.429688 118.917969 C 97.449219 119.0625 97.527344 119.183594 97.617188 119.289062 C 97.46875 119.191406 97.324219 119.082031 97.21875 118.9375 C 97.167969 118.867188 97.128906 118.765625 97.171875 118.683594 C 97.226562 118.589844 97.332031 118.550781 97.425781 118.515625 C 97.59375 118.460938 97.773438 118.429688 97.949219 118.414062 C 97.78125 118.382812 97.609375 118.421875 97.4375 118.417969 C 97.125 118.445312 96.800781 118.460938 96.511719 118.589844 C 96.394531 118.640625 96.269531 118.75 96.300781 118.890625 C 96.351562 119.09375 96.53125 119.226562 96.679688 119.359375 C 96.46875 119.234375 96.261719 119.082031 96.121094 118.878906 C 96.035156 118.75 95.996094 118.574219 96.066406 118.433594 C 96.167969 118.222656 96.378906 118.101562 96.578125 118.003906 C 97.054688 117.785156 97.578125 117.683594 98.097656 117.640625 C 97.886719 117.601562 97.664062 117.59375 97.472656 117.488281 C 97.28125 117.378906 97.160156 117.183594 97.03125 117.011719 C 97.246094 117.207031 97.511719 117.363281 97.808594 117.394531 C 98.109375 117.4375 98.460938 117.335938 98.628906 117.066406 C 98.78125 116.828125 98.742188 116.523438 98.636719 116.277344 C 98.550781 116.058594 98.382812 115.890625 98.277344 115.683594 C 98.136719 115.449219 98.042969 115.179688 98.039062 114.90625 C 98.035156 114.503906 98.160156 114.121094 98.222656 113.726562 C 98.042969 114.191406 97.839844 114.660156 97.824219 115.164062 C 97.808594 115.515625 97.921875 115.867188 98.128906 116.152344 C 98.230469 116.300781 98.359375 116.429688 98.488281 116.554688 C 98.121094 116.296875 97.785156 115.96875 97.632812 115.539062 C 97.484375 115.117188 97.515625 114.667969 97.542969 114.230469 C 97.570312 114.195312 97.582031 114.144531 97.539062 114.117188 C 97.515625 114.382812 97.4375 114.640625 97.417969 114.90625 C 97.375 115.257812 97.421875 115.628906 97.605469 115.933594 C 97.75 116.1875 97.953125 116.398438 98.167969 116.585938 C 97.800781 116.378906 97.476562 116.082031 97.246094 115.722656 C 96.941406 115.25 96.84375 114.660156 96.90625 114.105469 C 96.925781 113.882812 96.976562 113.664062 97.023438 113.449219 C 97.003906 113.210938 96.972656 112.957031 97.089844 112.738281 C 97.199219 112.523438 97.425781 112.40625 97.644531 112.335938 C 97.421875 112.328125 97.199219 112.332031 96.980469 112.371094 C 96.828125 112.402344 96.660156 112.472656 96.601562 112.628906 C 96.554688 112.742188 96.597656 112.859375 96.605469 112.976562 C 96.519531 112.792969 96.425781 112.582031 96.5 112.378906 C 96.589844 112.171875 96.808594 112.070312 97.007812 112.003906 C 97.199219 111.933594 97.398438 111.894531 97.59375 111.84375 C 97.265625 111.839844 96.929688 111.816406 96.613281 111.925781 C 96.390625 112.003906 96.226562 112.195312 96.132812 112.40625 C 96.183594 112.152344 96.292969 111.878906 96.535156 111.75 C 96.878906 111.582031 97.273438 111.601562 97.636719 111.507812 C 97.824219 111.457031 97.980469 111.324219 98.0625 111.152344 C 97.707031 111.332031 97.292969 111.425781 96.894531 111.339844 C 96.554688 111.273438 96.234375 111.070312 96.054688 110.765625 C 96.203125 110.894531 96.351562 111.035156 96.539062 111.105469 C 96.761719 111.1875 97.007812 111.164062 97.238281 111.148438 C 96.933594 111.125 96.601562 111.09375 96.359375 110.886719 C 96.121094 110.671875 96.054688 110.335938 96.03125 110.027344 C 96.121094 110.320312 96.269531 110.640625 96.566406 110.769531 C 96.859375 110.890625 97.179688 110.777344 97.449219 110.648438 C 97.230469 110.683594 96.992188 110.714844 96.789062 110.605469 C 96.570312 110.484375 96.433594 110.265625 96.300781 110.0625 C 96.5 110.273438 96.714844 110.5 97.007812 110.554688 C 97.25 110.601562 97.484375 110.472656 97.644531 110.300781 C 97.902344 110.019531 98.050781 109.65625 98.164062 109.296875 C 98.21875 109.121094 98.261719 108.941406 98.289062 108.761719 C 98.105469 108.96875 97.859375 109.152344 97.773438 109.425781 C 97.714844 109.609375 97.769531 109.792969 97.800781 109.972656 C 97.664062 109.71875 97.558594 109.410156 97.667969 109.125 C 97.808594 108.773438 98.125 108.542969 98.378906 108.277344 C 98.011719 108.472656 97.632812 108.671875 97.351562 108.984375 C 97.222656 109.128906 97.113281 109.324219 97.160156 109.523438 C 97.207031 109.726562 97.375 109.863281 97.539062 109.976562 C 97.292969 109.886719 97.035156 109.738281 96.953125 109.472656 C 96.867188 109.171875 96.984375 108.867188 97.085938 108.589844 C 96.933594 108.792969 96.757812 109.003906 96.734375 109.265625 C 96.714844 109.484375 96.839844 109.671875 96.957031 109.84375 C 96.738281 109.660156 96.578125 109.386719 96.59375 109.097656 C 96.609375 108.769531 96.796875 108.480469 97.011719 108.246094 C 97.359375 107.867188 97.785156 107.566406 98.242188 107.335938 C 98.03125 107.398438 97.828125 107.480469 97.632812 107.585938 C 97.382812 107.71875 97.171875 107.90625 96.960938 108.089844 C 97.242188 107.746094 97.585938 107.445312 97.992188 107.257812 C 98.375 107.082031 98.789062 106.992188 99.199219 106.902344 C 99.3125 106.882812 99.425781 106.84375 99.539062 106.835938 C 99.351562 106.800781 99.15625 106.785156 98.984375 106.699219 C 98.734375 106.578125 98.566406 106.351562 98.402344 106.136719 C 98.578125 106.273438 98.738281 106.445312 98.953125 106.527344 C 99.132812 106.597656 99.332031 106.59375 99.519531 106.578125 C 99.296875 106.5625 99.0625 106.515625 98.878906 106.375 C 98.6875 106.222656 98.558594 106.011719 98.421875 105.816406 C 98.660156 106.007812 98.914062 106.21875 99.226562 106.273438 C 99.511719 106.332031 99.796875 106.25 100.070312 106.175781 C 99.820312 106.183594 99.5625 106.222656 99.328125 106.121094 C 99.171875 106.050781 99.039062 105.9375 98.921875 105.820312 C 99.113281 105.902344 99.308594 105.984375 99.519531 106.003906 C 99.851562 106.046875 100.1875 105.929688 100.460938 105.742188 C 100.78125 105.519531 101.160156 105.398438 101.539062 105.3125 C 101.257812 105.261719 100.960938 105.207031 100.683594 105.285156 C 100.507812 105.332031 100.359375 105.4375 100.222656 105.554688 C 100.363281 105.34375 100.570312 105.164062 100.824219 105.117188 C 101.148438 105.050781 101.476562 105.140625 101.796875 105.179688 C 101.394531 105.046875 100.96875 104.890625 100.539062 104.972656 C 100.261719 105.023438 100.035156 105.203125 99.847656 105.398438 C 100.003906 105.152344 100.21875 104.917969 100.503906 104.824219 C 100.824219 104.722656 101.167969 104.785156 101.480469 104.875 C 101.992188 105.035156 102.519531 105.152344 103.054688 105.1875 C 102.742188 105.105469 102.425781 105 102.171875 104.796875 C 102.023438 104.679688 101.882812 104.554688 101.757812 104.414062 M 106.503906 113.5625 C 106.457031 113.371094 106.480469 113.171875 106.527344 112.984375 C 106.335938 112.855469 106.136719 112.742188 105.949219 112.609375 C 106.128906 112.929688 106.316406 113.246094 106.503906 113.5625 Z M 106.503906 113.5625 " fill-opacity="1" fill-rule="nonzero"/></g><g fill="#3e65cf" fill-opacity="1"><g transform="translate(69.529285, 186.874982)"><g><path d="M 12.890625 -4.046875 L 6.046875 -4.046875 L 4.359375 0 L 0.34375 0 L 9.671875 -21.484375 L 9.890625 -21.484375 L 19.21875 0 L 14.5 0 Z M 11.546875 -7.46875 L 9.546875 -12.5 L 7.46875 -7.46875 Z M 11.546875 -7.46875 "/></g></g></g><g fill="#c71610" fill-opacity="1"><g transform="translate(111.55272, 186.874982)"><g><path d="M 8.9375 -20.671875 C 11.457031 -20.671875 13.410156 -20.046875 14.796875 -18.796875 C 16.191406 -17.554688 16.890625 -15.859375 16.890625 -13.703125 C 16.890625 -12.472656 16.648438 -11.316406 16.171875 -10.234375 C 15.691406 -9.160156 14.910156 -8.273438 13.828125 -7.578125 C 12.753906 -6.890625 11.367188 -6.546875 9.671875 -6.546875 L 6.75 -6.546875 L 6.75 0 L 2.671875 0 L 2.671875 -20.671875 Z M 9.640625 -10.5 C 10.398438 -10.5 11.015625 -10.671875 11.484375 -11.015625 C 11.953125 -11.367188 12.289062 -11.78125 12.5 -12.25 C 12.707031 -12.71875 12.8125 -13.164062 12.8125 -13.59375 C 12.8125 -14.320312 12.59375 -15.03125 12.15625 -15.71875 C 11.726562 -16.40625 10.898438 -16.75 9.671875 -16.75 L 6.75 -16.75 L 6.75 -10.5 Z M 9.640625 -10.5 "/></g></g></g><g fill="#f2a60c" fill-opacity="1"><g transform="translate(151.888655, 186.874982)"><g><path d="M 8.9375 -20.671875 C 11.457031 -20.671875 13.410156 -20.046875 14.796875 -18.796875 C 16.191406 -17.554688 16.890625 -15.859375 16.890625 -13.703125 C 16.890625 -12.472656 16.648438 -11.316406 16.171875 -10.234375 C 15.691406 -9.160156 14.910156 -8.273438 13.828125 -7.578125 C 12.753906 -6.890625 11.367188 -6.546875 9.671875 -6.546875 L 6.75 -6.546875 L 6.75 0 L 2.671875 0 L 2.671875 -20.671875 Z M 9.640625 -10.5 C 10.398438 -10.5 11.015625 -10.671875 11.484375 -11.015625 C 11.953125 -11.367188 12.289062 -11.78125 12.5 -12.25 C 12.707031 -12.71875 12.8125 -13.164062 12.8125 -13.59375 C 12.8125 -14.320312 12.59375 -15.03125 12.15625 -15.71875 C 11.726562 -16.40625 10.898438 -16.75 9.671875 -16.75 L 6.75 -16.75 L 6.75 -10.5 Z M 9.640625 -10.5 "/></g></g></g><g fill="#08851b" fill-opacity="1"><g transform="translate(192.22459, 186.874982)"><g><path d="M 13.703125 -15.671875 C 11.910156 -16.671875 10.347656 -17.171875 9.015625 -17.171875 C 8.117188 -17.171875 7.421875 -16.988281 6.921875 -16.625 C 6.429688 -16.269531 6.1875 -15.738281 6.1875 -15.03125 C 6.1875 -14.375 6.546875 -13.796875 7.265625 -13.296875 C 7.984375 -12.804688 8.941406 -12.335938 10.140625 -11.890625 C 11.117188 -11.523438 11.953125 -11.113281 12.640625 -10.65625 C 13.335938 -10.195312 13.914062 -9.566406 14.375 -8.765625 C 14.832031 -7.960938 15.0625 -6.941406 15.0625 -5.703125 C 15.0625 -4.640625 14.785156 -3.648438 14.234375 -2.734375 C 13.679688 -1.828125 12.867188 -1.109375 11.796875 -0.578125 C 10.734375 -0.046875 9.460938 0.21875 7.984375 0.21875 C 6.742188 0.21875 5.515625 0.0351562 4.296875 -0.328125 C 3.078125 -0.691406 1.945312 -1.25 0.90625 -2 L 2.703125 -5.171875 C 3.410156 -4.640625 4.222656 -4.207031 5.140625 -3.875 C 6.054688 -3.539062 6.878906 -3.375 7.609375 -3.375 C 8.472656 -3.375 9.222656 -3.554688 9.859375 -3.921875 C 10.492188 -4.285156 10.8125 -4.878906 10.8125 -5.703125 C 10.8125 -6.765625 9.8125 -7.691406 7.8125 -8.484375 C 6.632812 -8.953125 5.648438 -9.398438 4.859375 -9.828125 C 4.078125 -10.265625 3.398438 -10.882812 2.828125 -11.6875 C 2.253906 -12.488281 1.96875 -13.5 1.96875 -14.71875 C 1.96875 -16.5 2.550781 -17.929688 3.71875 -19.015625 C 4.894531 -20.109375 6.457031 -20.703125 8.40625 -20.796875 C 9.9375 -20.796875 11.21875 -20.617188 12.25 -20.265625 C 13.28125 -19.921875 14.28125 -19.429688 15.25 -18.796875 Z M 13.703125 -15.671875 "/></g></g></g><g fill="#3e65cf" fill-opacity="1"><g transform="translate(231.072247, 186.874982)"><g><path d="M 6.328125 -7.640625 C 6.328125 -6.984375 6.519531 -6.351562 6.90625 -5.75 C 7.300781 -5.15625 7.828125 -4.671875 8.484375 -4.296875 C 9.140625 -3.921875 9.84375 -3.734375 10.59375 -3.734375 C 11.394531 -3.734375 12.132812 -3.921875 12.8125 -4.296875 C 13.488281 -4.671875 14.015625 -5.15625 14.390625 -5.75 C 14.773438 -6.351562 14.96875 -6.984375 14.96875 -7.640625 L 14.96875 -20.671875 L 18.984375 -20.671875 L 18.984375 -7.5625 C 18.984375 -6.082031 18.609375 -4.742188 17.859375 -3.546875 C 17.117188 -2.359375 16.101562 -1.429688 14.8125 -0.765625 C 13.53125 -0.109375 12.125 0.21875 10.59375 0.21875 C 9.050781 0.21875 7.644531 -0.109375 6.375 -0.765625 C 5.101562 -1.429688 4.097656 -2.359375 3.359375 -3.546875 C 2.617188 -4.742188 2.25 -6.082031 2.25 -7.5625 L 2.25 -20.671875 L 6.328125 -20.671875 Z M 6.328125 -7.640625 "/></g></g></g><g fill="#c71610" fill-opacity="1"><g transform="translate(274.783182, 186.874982)"><g><path d="M 13.703125 -15.671875 C 11.910156 -16.671875 10.347656 -17.171875 9.015625 -17.171875 C 8.117188 -17.171875 7.421875 -16.988281 6.921875 -16.625 C 6.429688 -16.269531 6.1875 -15.738281 6.1875 -15.03125 C 6.1875 -14.375 6.546875 -13.796875 7.265625 -13.296875 C 7.984375 -12.804688 8.941406 -12.335938 10.140625 -11.890625 C 11.117188 -11.523438 11.953125 -11.113281 12.640625 -10.65625 C 13.335938 -10.195312 13.914062 -9.566406 14.375 -8.765625 C 14.832031 -7.960938 15.0625 -6.941406 15.0625 -5.703125 C 15.0625 -4.640625 14.785156 -3.648438 14.234375 -2.734375 C 13.679688 -1.828125 12.867188 -1.109375 11.796875 -0.578125 C 10.734375 -0.046875 9.460938 0.21875 7.984375 0.21875 C 6.742188 0.21875 5.515625 0.0351562 4.296875 -0.328125 C 3.078125 -0.691406 1.945312 -1.25 0.90625 -2 L 2.703125 -5.171875 C 3.410156 -4.640625 4.222656 -4.207031 5.140625 -3.875 C 6.054688 -3.539062 6.878906 -3.375 7.609375 -3.375 C 8.472656 -3.375 9.222656 -3.554688 9.859375 -3.921875 C 10.492188 -4.285156 10.8125 -4.878906 10.8125 -5.703125 C 10.8125 -6.765625 9.8125 -7.691406 7.8125 -8.484375 C 6.632812 -8.953125 5.648438 -9.398438 4.859375 -9.828125 C 4.078125 -10.265625 3.398438 -10.882812 2.828125 -11.6875 C 2.253906 -12.488281 1.96875 -13.5 1.96875 -14.71875 C 1.96875 -16.5 2.550781 -17.929688 3.71875 -19.015625 C 4.894531 -20.109375 6.457031 -20.703125 8.40625 -20.796875 C 9.9375 -20.796875 11.21875 -20.617188 12.25 -20.265625 C 13.28125 -19.921875 14.28125 -19.429688 15.25 -18.796875 Z M 13.703125 -15.671875 "/></g></g></g><g fill="#c71610" fill-opacity="1"><g transform="translate(91.152628, 214.328831)"><g><path d="M 7.515625 -8.03125 L 4.5 -2.609375 L 4.5 0 L 3.21875 0 L 3.21875 -2.609375 L 0.25 -8.03125 L 1.828125 -8.03125 L 3.90625 -4.078125 L 5.9375 -8.03125 Z M 7.515625 -8.03125 "/></g></g></g><g fill="#c71610" fill-opacity="1"><g transform="translate(103.331158, 214.328831)"><g><path d="M 0.609375 -4 C 0.609375 -4.738281 0.789062 -5.421875 1.15625 -6.046875 C 1.519531 -6.679688 2.015625 -7.1875 2.640625 -7.5625 C 3.273438 -7.9375 3.960938 -8.125 4.703125 -8.125 C 5.441406 -8.125 6.125 -7.9375 6.75 -7.5625 C 7.382812 -7.1875 7.890625 -6.679688 8.265625 -6.046875 C 8.640625 -5.410156 8.828125 -4.726562 8.828125 -4 C 8.828125 -3.257812 8.640625 -2.578125 8.265625 -1.953125 C 7.890625 -1.328125 7.382812 -0.828125 6.75 -0.453125 C 6.125 -0.0859375 5.441406 0.09375 4.703125 0.09375 C 3.960938 0.09375 3.273438 -0.0859375 2.640625 -0.453125 C 2.015625 -0.816406 1.519531 -1.3125 1.15625 -1.9375 C 0.789062 -2.5625 0.609375 -3.25 0.609375 -4 Z M 1.9375 -4 C 1.9375 -3.476562 2.0625 -3 2.3125 -2.5625 C 2.5625 -2.132812 2.898438 -1.789062 3.328125 -1.53125 C 3.753906 -1.269531 4.226562 -1.140625 4.75 -1.140625 C 5.25 -1.140625 5.707031 -1.265625 6.125 -1.515625 C 6.550781 -1.773438 6.882812 -2.125 7.125 -2.5625 C 7.375 -3 7.5 -3.476562 7.5 -4 C 7.5 -4.519531 7.375 -5 7.125 -5.4375 C 6.875 -5.882812 6.535156 -6.238281 6.109375 -6.5 C 5.679688 -6.757812 5.210938 -6.890625 4.703125 -6.890625 C 4.191406 -6.890625 3.722656 -6.757812 3.296875 -6.5 C 2.878906 -6.238281 2.546875 -5.882812 2.296875 -5.4375 C 2.054688 -5 1.9375 -4.519531 1.9375 -4 Z M 1.9375 -4 "/></g></g></g><g fill="#c71610" fill-opacity="1"><g transform="translate(117.175414, 214.328831)"><g><path d="M 2.265625 -2.890625 C 2.265625 -2.578125 2.34375 -2.285156 2.5 -2.015625 C 2.664062 -1.753906 2.882812 -1.546875 3.15625 -1.390625 C 3.4375 -1.234375 3.742188 -1.15625 4.078125 -1.15625 C 4.421875 -1.15625 4.734375 -1.234375 5.015625 -1.390625 C 5.304688 -1.546875 5.53125 -1.753906 5.6875 -2.015625 C 5.851562 -2.285156 5.9375 -2.578125 5.9375 -2.890625 L 5.9375 -8.03125 L 7.203125 -8.03125 L 7.203125 -2.859375 C 7.203125 -2.285156 7.0625 -1.773438 6.78125 -1.328125 C 6.507812 -0.878906 6.132812 -0.53125 5.65625 -0.28125 C 5.175781 -0.03125 4.648438 0.09375 4.078125 0.09375 C 3.503906 0.09375 2.976562 -0.03125 2.5 -0.28125 C 2.03125 -0.53125 1.660156 -0.878906 1.390625 -1.328125 C 1.117188 -1.773438 0.984375 -2.285156 0.984375 -2.859375 L 0.984375 -8.03125 L 2.265625 -8.03125 Z M 2.265625 -2.890625 "/></g></g></g><g fill="#c71610" fill-opacity="1"><g transform="translate(129.7621, 214.328831)"><g><path d="M 5.5 0 L 3.6875 -2.796875 L 2.390625 -2.796875 L 2.390625 0 L 1.109375 0 L 1.109375 -8.03125 L 3.359375 -8.03125 C 4.253906 -8.03125 4.972656 -7.800781 5.515625 -7.34375 C 6.054688 -6.882812 6.328125 -6.253906 6.328125 -5.453125 C 6.328125 -4.953125 6.222656 -4.488281 6.015625 -4.0625 C 5.804688 -3.644531 5.476562 -3.320312 5.03125 -3.09375 L 6.984375 0 Z M 2.390625 -4.03125 L 3.546875 -4.03125 C 4.054688 -4.03125 4.425781 -4.171875 4.65625 -4.453125 C 4.894531 -4.734375 5.015625 -5.050781 5.015625 -5.40625 C 5.015625 -5.613281 4.96875 -5.820312 4.875 -6.03125 C 4.789062 -6.238281 4.640625 -6.414062 4.421875 -6.5625 C 4.210938 -6.71875 3.929688 -6.796875 3.578125 -6.796875 L 2.390625 -6.796875 Z M 2.390625 -4.03125 "/></g></g></g><g fill="#c71610" fill-opacity="1"><g transform="translate(141.565564, 214.328831)"><g/></g></g><g fill="#c71610" fill-opacity="1"><g transform="translate(149.508072, 214.328831)"><g><path d="M 0.609375 -4 C 0.609375 -4.738281 0.789062 -5.421875 1.15625 -6.046875 C 1.519531 -6.679688 2.015625 -7.1875 2.640625 -7.5625 C 3.273438 -7.9375 3.960938 -8.125 4.703125 -8.125 C 5.441406 -8.125 6.125 -7.9375 6.75 -7.5625 C 7.382812 -7.1875 7.890625 -6.679688 8.265625 -6.046875 C 8.640625 -5.410156 8.828125 -4.726562 8.828125 -4 C 8.828125 -3.257812 8.640625 -2.578125 8.265625 -1.953125 C 7.890625 -1.328125 7.382812 -0.828125 6.75 -0.453125 C 6.125 -0.0859375 5.441406 0.09375 4.703125 0.09375 C 3.960938 0.09375 3.273438 -0.0859375 2.640625 -0.453125 C 2.015625 -0.816406 1.519531 -1.3125 1.15625 -1.9375 C 0.789062 -2.5625 0.609375 -3.25 0.609375 -4 Z M 1.9375 -4 C 1.9375 -3.476562 2.0625 -3 2.3125 -2.5625 C 2.5625 -2.132812 2.898438 -1.789062 3.328125 -1.53125 C 3.753906 -1.269531 4.226562 -1.140625 4.75 -1.140625 C 5.25 -1.140625 5.707031 -1.265625 6.125 -1.515625 C 6.550781 -1.773438 6.882812 -2.125 7.125 -2.5625 C 7.375 -3 7.5 -3.476562 7.5 -4 C 7.5 -4.519531 7.375 -5 7.125 -5.4375 C 6.875 -5.882812 6.535156 -6.238281 6.109375 -6.5 C 5.679688 -6.757812 5.210938 -6.890625 4.703125 -6.890625 C 4.191406 -6.890625 3.722656 -6.757812 3.296875 -6.5 C 2.878906 -6.238281 2.546875 -5.882812 2.296875 -5.4375 C 2.054688 -5 1.9375 -4.519531 1.9375 -4 Z M 1.9375 -4 "/></g></g></g><g fill="#c71610" fill-opacity="1"><g transform="translate(163.352331, 214.328831)"><g><path d="M 8.203125 -8.03125 L 8.203125 0.28125 L 8.15625 0.28125 L 2.375 -5.328125 L 2.40625 0 L 1.109375 0 L 1.109375 -8.3125 L 1.171875 -8.3125 L 6.9375 -2.625 L 6.921875 -8.03125 Z M 8.203125 -8.03125 "/></g></g></g><g fill="#c71610" fill-opacity="1"><g transform="translate(177.075242, 214.328831)"><g><path d="M 6.4375 -8.03125 L 6.4375 -6.796875 L 2.390625 -6.796875 L 2.390625 -4.65625 L 5.984375 -4.65625 L 5.984375 -3.421875 L 2.390625 -3.421875 L 2.390625 -1.234375 L 6.578125 -1.234375 L 6.578125 0 L 1.109375 0 L 1.109375 -8.03125 Z M 6.4375 -8.03125 "/></g></g></g><g fill="#c71610" fill-opacity="1"><g transform="translate(188.746337, 214.328831)"><g><path d="M 2.65625 -2.984375 L 2.65625 -1.890625 L 0.59375 -1.890625 L 0.59375 -2.984375 Z M 2.65625 -2.984375 "/></g></g></g><g fill="#c71610" fill-opacity="1"><g transform="translate(196.523373, 214.328831)"><g><path d="M 5.3125 -6.390625 C 4.625 -6.753906 4.007812 -6.9375 3.46875 -6.9375 C 3.070312 -6.9375 2.757812 -6.847656 2.53125 -6.671875 C 2.300781 -6.492188 2.1875 -6.253906 2.1875 -5.953125 C 2.1875 -5.648438 2.332031 -5.394531 2.625 -5.1875 C 2.914062 -4.988281 3.320312 -4.789062 3.84375 -4.59375 C 4.238281 -4.445312 4.578125 -4.285156 4.859375 -4.109375 C 5.140625 -3.929688 5.367188 -3.6875 5.546875 -3.375 C 5.734375 -3.0625 5.828125 -2.671875 5.828125 -2.203125 C 5.828125 -1.773438 5.722656 -1.390625 5.515625 -1.046875 C 5.304688 -0.703125 5 -0.425781 4.59375 -0.21875 C 4.1875 -0.0078125 3.707031 0.09375 3.15625 0.09375 C 2.664062 0.09375 2.1875 0.0195312 1.71875 -0.125 C 1.25 -0.28125 0.832031 -0.492188 0.46875 -0.765625 L 1.03125 -1.765625 C 1.300781 -1.554688 1.625 -1.382812 2 -1.25 C 2.375 -1.113281 2.71875 -1.046875 3.03125 -1.046875 C 3.425781 -1.046875 3.769531 -1.140625 4.0625 -1.328125 C 4.351562 -1.515625 4.5 -1.800781 4.5 -2.1875 C 4.5 -2.5 4.375 -2.757812 4.125 -2.96875 C 3.882812 -3.175781 3.539062 -3.363281 3.09375 -3.53125 C 2.644531 -3.695312 2.269531 -3.863281 1.96875 -4.03125 C 1.664062 -4.195312 1.40625 -4.425781 1.1875 -4.71875 C 0.96875 -5.019531 0.859375 -5.394531 0.859375 -5.84375 C 0.859375 -6.5 1.078125 -7.023438 1.515625 -7.421875 C 1.960938 -7.828125 2.550781 -8.046875 3.28125 -8.078125 C 3.8125 -8.078125 4.273438 -8.015625 4.671875 -7.890625 C 5.078125 -7.765625 5.453125 -7.59375 5.796875 -7.375 Z M 5.3125 -6.390625 "/></g></g></g><g fill="#c71610" fill-opacity="1"><g transform="translate(207.356091, 214.328831)"><g><path d="M 5.90625 -8.03125 L 5.90625 -6.796875 L 3.828125 -6.796875 L 3.828125 0 L 2.546875 0 L 2.546875 -6.796875 L 0.53125 -6.796875 L 0.53125 -8.03125 Z M 5.90625 -8.03125 "/></g></g></g><g fill="#c71610" fill-opacity="1"><g transform="translate(218.199835, 214.328831)"><g><path d="M 0.609375 -4 C 0.609375 -4.738281 0.789062 -5.421875 1.15625 -6.046875 C 1.519531 -6.679688 2.015625 -7.1875 2.640625 -7.5625 C 3.273438 -7.9375 3.960938 -8.125 4.703125 -8.125 C 5.441406 -8.125 6.125 -7.9375 6.75 -7.5625 C 7.382812 -7.1875 7.890625 -6.679688 8.265625 -6.046875 C 8.640625 -5.410156 8.828125 -4.726562 8.828125 -4 C 8.828125 -3.257812 8.640625 -2.578125 8.265625 -1.953125 C 7.890625 -1.328125 7.382812 -0.828125 6.75 -0.453125 C 6.125 -0.0859375 5.441406 0.09375 4.703125 0.09375 C 3.960938 0.09375 3.273438 -0.0859375 2.640625 -0.453125 C 2.015625 -0.816406 1.519531 -1.3125 1.15625 -1.9375 C 0.789062 -2.5625 0.609375 -3.25 0.609375 -4 Z M 1.9375 -4 C 1.9375 -3.476562 2.0625 -3 2.3125 -2.5625 C 2.5625 -2.132812 2.898438 -1.789062 3.328125 -1.53125 C 3.753906 -1.269531 4.226562 -1.140625 4.75 -1.140625 C 5.25 -1.140625 5.707031 -1.265625 6.125 -1.515625 C 6.550781 -1.773438 6.882812 -2.125 7.125 -2.5625 C 7.375 -3 7.5 -3.476562 7.5 -4 C 7.5 -4.519531 7.375 -5 7.125 -5.4375 C 6.875 -5.882812 6.535156 -6.238281 6.109375 -6.5 C 5.679688 -6.757812 5.210938 -6.890625 4.703125 -6.890625 C 4.191406 -6.890625 3.722656 -6.757812 3.296875 -6.5 C 2.878906 -6.238281 2.546875 -5.882812 2.296875 -5.4375 C 2.054688 -5 1.9375 -4.519531 1.9375 -4 Z M 1.9375 -4 "/></g></g></g><g fill="#c71610" fill-opacity="1"><g transform="translate(232.044094, 214.328831)"><g><path d="M 3.375 -8.03125 C 4.289062 -8.03125 5.003906 -7.800781 5.515625 -7.34375 C 6.023438 -6.882812 6.28125 -6.253906 6.28125 -5.453125 C 6.28125 -4.984375 6.1875 -4.546875 6 -4.140625 C 5.820312 -3.742188 5.53125 -3.421875 5.125 -3.171875 C 4.71875 -2.921875 4.191406 -2.796875 3.546875 -2.796875 L 2.390625 -2.796875 L 2.390625 0 L 1.109375 0 L 1.109375 -8.03125 Z M 3.546875 -4.03125 C 3.898438 -4.03125 4.1875 -4.101562 4.40625 -4.25 C 4.625 -4.40625 4.78125 -4.585938 4.875 -4.796875 C 4.96875 -5.015625 5.015625 -5.222656 5.015625 -5.421875 C 5.015625 -5.765625 4.90625 -6.078125 4.6875 -6.359375 C 4.46875 -6.648438 4.097656 -6.796875 3.578125 -6.796875 L 2.390625 -6.796875 L 2.390625 -4.03125 Z M 3.546875 -4.03125 "/></g></g></g><g fill="#c71610" fill-opacity="1"><g transform="translate(243.196711, 214.328831)"><g/></g></g><g fill="#c71610" fill-opacity="1"><g transform="translate(251.139223, 214.328831)"><g><path d="M 7.640625 0 L 6.34375 0 L 6.34375 -3.421875 L 2.390625 -3.421875 L 2.390625 0 L 1.109375 0 L 1.109375 -8.03125 L 2.390625 -8.03125 L 2.390625 -4.640625 L 6.34375 -4.640625 L 6.34375 -8.03125 L 7.640625 -8.03125 Z M 7.640625 0 "/></g></g></g><g fill="#c71610" fill-opacity="1"><g transform="translate(264.288517, 214.328831)"><g><path d="M 2.265625 -2.890625 C 2.265625 -2.578125 2.34375 -2.285156 2.5 -2.015625 C 2.664062 -1.753906 2.882812 -1.546875 3.15625 -1.390625 C 3.4375 -1.234375 3.742188 -1.15625 4.078125 -1.15625 C 4.421875 -1.15625 4.734375 -1.234375 5.015625 -1.390625 C 5.304688 -1.546875 5.53125 -1.753906 5.6875 -2.015625 C 5.851562 -2.285156 5.9375 -2.578125 5.9375 -2.890625 L 5.9375 -8.03125 L 7.203125 -8.03125 L 7.203125 -2.859375 C 7.203125 -2.285156 7.0625 -1.773438 6.78125 -1.328125 C 6.507812 -0.878906 6.132812 -0.53125 5.65625 -0.28125 C 5.175781 -0.03125 4.648438 0.09375 4.078125 0.09375 C 3.503906 0.09375 2.976562 -0.03125 2.5 -0.28125 C 2.03125 -0.53125 1.660156 -0.878906 1.390625 -1.328125 C 1.117188 -1.773438 0.984375 -2.285156 0.984375 -2.859375 L 0.984375 -8.03125 L 2.265625 -8.03125 Z M 2.265625 -2.890625 "/></g></g></g><g fill="#c71610" fill-opacity="1"><g transform="translate(276.875205, 214.328831)"><g><path d="M 4.90625 -4.1875 C 5.351562 -4.007812 5.703125 -3.757812 5.953125 -3.4375 C 6.210938 -3.113281 6.34375 -2.738281 6.34375 -2.3125 C 6.34375 -1.53125 6.078125 -0.945312 5.546875 -0.5625 C 5.023438 -0.1875 4.378906 0 3.609375 0 L 1.109375 0 L 1.109375 -8.03125 L 3.296875 -8.03125 C 4.140625 -8.03125 4.789062 -7.859375 5.25 -7.515625 C 5.71875 -7.171875 5.953125 -6.671875 5.953125 -6.015625 C 5.953125 -5.597656 5.859375 -5.234375 5.671875 -4.921875 C 5.492188 -4.617188 5.238281 -4.375 4.90625 -4.1875 Z M 2.390625 -4.609375 L 3.515625 -4.609375 C 3.878906 -4.609375 4.15625 -4.710938 4.34375 -4.921875 C 4.53125 -5.140625 4.625 -5.410156 4.625 -5.734375 C 4.625 -6.085938 4.507812 -6.351562 4.28125 -6.53125 C 4.0625 -6.707031 3.753906 -6.796875 3.359375 -6.796875 L 2.390625 -6.796875 Z M 3.546875 -1.1875 C 3.984375 -1.1875 4.335938 -1.28125 4.609375 -1.46875 C 4.878906 -1.65625 5.015625 -1.929688 5.015625 -2.296875 C 5.015625 -2.679688 4.863281 -2.957031 4.5625 -3.125 C 4.269531 -3.289062 3.90625 -3.375 3.46875 -3.375 L 2.390625 -3.375 L 2.390625 -1.1875 Z M 3.546875 -1.1875 "/></g></g></g><g fill="#f2a60c" fill-opacity="1"><g transform="translate(156.814561, 237.059167)"><g><path d="M 4.265625 -5.328125 L 4.265625 -4.515625 L 1.59375 -4.515625 L 1.59375 -3.09375 L 3.984375 -3.09375 L 3.984375 -2.265625 L 1.59375 -2.265625 L 1.59375 -0.828125 L 4.375 -0.828125 L 4.375 0 L 0.734375 0 L 0.734375 -5.328125 Z M 4.265625 -5.328125 "/></g></g></g><g fill="#f2a60c" fill-opacity="1"><g transform="translate(164.565325, 237.059167)"><g><path d="M 3.53125 -4.25 C 3.070312 -4.488281 2.664062 -4.609375 2.3125 -4.609375 C 2.039062 -4.609375 1.828125 -4.546875 1.671875 -4.421875 C 1.523438 -4.304688 1.453125 -4.148438 1.453125 -3.953125 C 1.453125 -3.753906 1.546875 -3.585938 1.734375 -3.453125 C 1.929688 -3.316406 2.203125 -3.179688 2.546875 -3.046875 C 2.816406 -2.953125 3.046875 -2.84375 3.234375 -2.71875 C 3.421875 -2.601562 3.570312 -2.441406 3.6875 -2.234375 C 3.8125 -2.035156 3.875 -1.78125 3.875 -1.46875 C 3.875 -1.1875 3.800781 -0.929688 3.65625 -0.703125 C 3.519531 -0.472656 3.316406 -0.285156 3.046875 -0.140625 C 2.773438 -0.00390625 2.457031 0.0625 2.09375 0.0625 C 1.769531 0.0625 1.453125 0.015625 1.140625 -0.078125 C 0.828125 -0.179688 0.550781 -0.320312 0.3125 -0.5 L 0.6875 -1.171875 C 0.863281 -1.035156 1.078125 -0.921875 1.328125 -0.828125 C 1.578125 -0.742188 1.804688 -0.703125 2.015625 -0.703125 C 2.273438 -0.703125 2.5 -0.757812 2.6875 -0.875 C 2.882812 -1 2.984375 -1.191406 2.984375 -1.453125 C 2.984375 -1.660156 2.898438 -1.832031 2.734375 -1.96875 C 2.578125 -2.101562 2.351562 -2.226562 2.0625 -2.34375 C 1.757812 -2.457031 1.503906 -2.566406 1.296875 -2.671875 C 1.097656 -2.785156 0.925781 -2.941406 0.78125 -3.140625 C 0.644531 -3.335938 0.578125 -3.585938 0.578125 -3.890625 C 0.578125 -4.316406 0.722656 -4.660156 1.015625 -4.921875 C 1.304688 -5.191406 1.695312 -5.335938 2.1875 -5.359375 C 2.539062 -5.359375 2.847656 -5.316406 3.109375 -5.234375 C 3.378906 -5.160156 3.628906 -5.050781 3.859375 -4.90625 Z M 3.53125 -4.25 "/></g></g></g><g fill="#f2a60c" fill-opacity="1"><g transform="translate(171.759325, 237.059167)"><g><path d="M 3.921875 -5.328125 L 3.921875 -4.515625 L 2.546875 -4.515625 L 2.546875 0 L 1.6875 0 L 1.6875 -4.515625 L 0.359375 -4.515625 L 0.359375 -5.328125 Z M 3.921875 -5.328125 "/></g></g></g><g fill="#f2a60c" fill-opacity="1"><g transform="translate(178.960646, 237.059167)"><g><path d="M 0.734375 -5.328125 L 2.25 -5.328125 C 2.914062 -5.328125 3.46875 -5.195312 3.90625 -4.9375 C 4.34375 -4.675781 4.660156 -4.335938 4.859375 -3.921875 C 5.066406 -3.503906 5.171875 -3.0625 5.171875 -2.59375 C 5.171875 -2.070312 5.046875 -1.613281 4.796875 -1.21875 C 4.554688 -0.832031 4.234375 -0.53125 3.828125 -0.3125 C 3.421875 -0.101562 2.976562 0 2.5 0 L 0.734375 0 Z M 2.359375 -0.828125 C 2.734375 -0.828125 3.066406 -0.894531 3.359375 -1.03125 C 3.648438 -1.175781 3.875 -1.382812 4.03125 -1.65625 C 4.195312 -1.9375 4.28125 -2.269531 4.28125 -2.65625 C 4.28125 -3.070312 4.191406 -3.421875 4.015625 -3.703125 C 3.835938 -3.984375 3.609375 -4.1875 3.328125 -4.3125 C 3.054688 -4.445312 2.773438 -4.515625 2.484375 -4.515625 L 1.59375 -4.515625 L 1.59375 -0.828125 Z M 2.359375 -0.828125 "/></g></g></g><g fill="#f2a60c" fill-opacity="1"><g transform="translate(187.465975, 237.059167)"><g/></g></g><g fill="#f2a60c" fill-opacity="1"><g transform="translate(192.740589, 237.059167)"><g><path d="M 3.765625 -0.828125 L 3.765625 0 L 0.390625 0 L 0.65625 -0.265625 C 1.144531 -0.742188 1.523438 -1.132812 1.796875 -1.4375 C 2.078125 -1.75 2.304688 -2.0625 2.484375 -2.375 C 2.671875 -2.6875 2.765625 -2.976562 2.765625 -3.25 C 2.765625 -3.519531 2.679688 -3.722656 2.515625 -3.859375 C 2.359375 -4.003906 2.160156 -4.078125 1.921875 -4.078125 C 1.660156 -4.078125 1.457031 -4.003906 1.3125 -3.859375 C 1.175781 -3.710938 1.109375 -3.546875 1.109375 -3.359375 C 1.109375 -3.054688 1.203125 -2.804688 1.390625 -2.609375 L 0.875 -2.125 C 0.695312 -2.226562 0.550781 -2.40625 0.4375 -2.65625 C 0.332031 -2.90625 0.28125 -3.132812 0.28125 -3.34375 C 0.28125 -3.613281 0.347656 -3.867188 0.484375 -4.109375 C 0.628906 -4.347656 0.835938 -4.535156 1.109375 -4.671875 C 1.378906 -4.816406 1.695312 -4.890625 2.0625 -4.890625 C 2.375 -4.890625 2.648438 -4.816406 2.890625 -4.671875 C 3.128906 -4.535156 3.316406 -4.347656 3.453125 -4.109375 C 3.585938 -3.867188 3.65625 -3.609375 3.65625 -3.328125 C 3.65625 -3.046875 3.585938 -2.769531 3.453125 -2.5 C 3.328125 -2.226562 3.175781 -1.972656 3 -1.734375 C 2.820312 -1.503906 2.570312 -1.203125 2.25 -0.828125 Z M 3.765625 -0.828125 "/></g></g></g><g fill="#f2a60c" fill-opacity="1"><g transform="translate(199.773417, 237.059167)"><g><path d="M 2.296875 0.015625 C 1.898438 0.015625 1.546875 -0.078125 1.234375 -0.265625 C 0.929688 -0.460938 0.691406 -0.742188 0.515625 -1.109375 C 0.335938 -1.484375 0.25 -1.925781 0.25 -2.4375 C 0.25 -3.269531 0.429688 -3.882812 0.796875 -4.28125 C 1.160156 -4.6875 1.660156 -4.890625 2.296875 -4.890625 C 2.679688 -4.890625 3.023438 -4.789062 3.328125 -4.59375 C 3.640625 -4.40625 3.882812 -4.125 4.0625 -3.75 C 4.238281 -3.382812 4.328125 -2.945312 4.328125 -2.4375 C 4.328125 -1.914062 4.238281 -1.46875 4.0625 -1.09375 C 3.882812 -0.726562 3.640625 -0.453125 3.328125 -0.265625 C 3.023438 -0.078125 2.679688 0.015625 2.296875 0.015625 Z M 2.28125 -0.796875 C 2.664062 -0.796875 2.953125 -0.945312 3.140625 -1.25 C 3.335938 -1.550781 3.4375 -1.957031 3.4375 -2.46875 C 3.4375 -2.957031 3.335938 -3.347656 3.140625 -3.640625 C 2.953125 -3.929688 2.664062 -4.070312 2.28125 -4.0625 C 1.90625 -4.070312 1.617188 -3.925781 1.421875 -3.625 C 1.234375 -3.332031 1.140625 -2.9375 1.140625 -2.4375 C 1.140625 -1.9375 1.234375 -1.535156 1.421875 -1.234375 C 1.617188 -0.941406 1.90625 -0.796875 2.28125 -0.796875 Z M 2.28125 -0.796875 "/></g></g></g><g fill="#f2a60c" fill-opacity="1"><g transform="translate(207.282423, 237.059167)"><g><path d="M 3.765625 -0.828125 L 3.765625 0 L 0.390625 0 L 0.65625 -0.265625 C 1.144531 -0.742188 1.523438 -1.132812 1.796875 -1.4375 C 2.078125 -1.75 2.304688 -2.0625 2.484375 -2.375 C 2.671875 -2.6875 2.765625 -2.976562 2.765625 -3.25 C 2.765625 -3.519531 2.679688 -3.722656 2.515625 -3.859375 C 2.359375 -4.003906 2.160156 -4.078125 1.921875 -4.078125 C 1.660156 -4.078125 1.457031 -4.003906 1.3125 -3.859375 C 1.175781 -3.710938 1.109375 -3.546875 1.109375 -3.359375 C 1.109375 -3.054688 1.203125 -2.804688 1.390625 -2.609375 L 0.875 -2.125 C 0.695312 -2.226562 0.550781 -2.40625 0.4375 -2.65625 C 0.332031 -2.90625 0.28125 -3.132812 0.28125 -3.34375 C 0.28125 -3.613281 0.347656 -3.867188 0.484375 -4.109375 C 0.628906 -4.347656 0.835938 -4.535156 1.109375 -4.671875 C 1.378906 -4.816406 1.695312 -4.890625 2.0625 -4.890625 C 2.375 -4.890625 2.648438 -4.816406 2.890625 -4.671875 C 3.128906 -4.535156 3.316406 -4.347656 3.453125 -4.109375 C 3.585938 -3.867188 3.65625 -3.609375 3.65625 -3.328125 C 3.65625 -3.046875 3.585938 -2.769531 3.453125 -2.5 C 3.328125 -2.226562 3.175781 -1.972656 3 -1.734375 C 2.820312 -1.503906 2.570312 -1.203125 2.25 -0.828125 Z M 3.765625 -0.828125 "/></g></g></g><g fill="#f2a60c" fill-opacity="1"><g transform="translate(214.315251, 237.059167)"><g><path d="M 2.234375 -3.0625 C 2.566406 -3.019531 2.84375 -2.878906 3.0625 -2.640625 C 3.28125 -2.410156 3.390625 -2.066406 3.390625 -1.609375 C 3.390625 -1.273438 3.3125 -0.984375 3.15625 -0.734375 C 3 -0.484375 2.789062 -0.285156 2.53125 -0.140625 C 2.269531 -0.00390625 1.984375 0.0625 1.671875 0.0625 C 1.429688 0.0625 1.1875 0.015625 0.9375 -0.078125 C 0.695312 -0.179688 0.503906 -0.3125 0.359375 -0.46875 L 0.78125 -1.1875 C 0.875 -1.070312 1 -0.972656 1.15625 -0.890625 C 1.320312 -0.804688 1.488281 -0.765625 1.65625 -0.765625 C 1.894531 -0.765625 2.097656 -0.84375 2.265625 -1 C 2.429688 -1.164062 2.515625 -1.382812 2.515625 -1.65625 C 2.515625 -1.90625 2.4375 -2.101562 2.28125 -2.25 C 2.132812 -2.40625 1.9375 -2.484375 1.6875 -2.484375 C 1.5625 -2.484375 1.457031 -2.472656 1.375 -2.453125 C 1.289062 -2.441406 1.195312 -2.421875 1.09375 -2.390625 L 1.0625 -2.421875 L 2.03125 -4.015625 L 0.6875 -4.015625 L 0.6875 -4.84375 L 3.265625 -4.84375 Z M 2.234375 -3.0625 "/></g></g></g></svg>